<svg width="1440" height="870" viewBox="0 0 1440 870" fill="none" xmlns="http://www.w3.org/2000/svg">
<path d="M4.5 810.5V0H779C775.833 248 540.113 731.922 535.5 743C486.077 861.676 207.212 922.428 4.5 810.5Z" fill="url(#paint0_linear)"/>
<path d="M517.678 816.98C298.347 819.794 0 519.888 0 519.888V10H1452V767.769C1452 814.702 1179.41 761.845 1058.86 728.582C938.323 695.318 737.009 814.166 517.678 816.98Z" fill="url(#paint1_linear)"/>
<path d="M803 562.5C569.079 336.585 -7 392.35 -7 392.35V-6H1466.04V580.779C1466.04 580.779 1568.06 605.995 1393 594C1217.94 582.005 1036.92 788.415 803 562.5Z" fill="url(#paint2_linear)"/>
<path d="M931 252.5C802.5 376 839 399 754.5 556.5C670 714 292 774.5 183 723C74 671.5 -2 702 -2 702V-2H1438C1438 -2 1473.06 113.4 1344.5 175.5C1220.57 235.364 1059.5 129 931 252.5Z" fill="url(#paint3_linear)"/>
<defs>
<linearGradient id="paint0_linear" x1="391.75" y1="0" x2="391.75" y2="869.943" gradientUnits="userSpaceOnUse">
<stop offset="0.875" stop-color="#FFF4DE"/>
<stop offset="1" stop-color="#FFF4DE" stop-opacity="0"/>
</linearGradient>
<linearGradient id="paint1_linear" x1="726" y1="10" x2="726" y2="808.862" gradientUnits="userSpaceOnUse">
<stop offset="0.874311" stop-color="#FFF4DE"/>
<stop offset="1" stop-color="#FFF4DE" stop-opacity="0"/>
</linearGradient>
<linearGradient id="paint2_linear" x1="729.522" y1="-5.99995" x2="1100.17" y2="481.238" gradientUnits="userSpaceOnUse">
<stop offset="0.64678" stop-color="#F6CE70"/>
<stop offset="1" stop-color="#FADF9F"/>
</linearGradient>
<linearGradient id="paint3_linear" x1="718" y1="-1.99999" x2="819" y2="625" gradientUnits="userSpaceOnUse">
<stop offset="0.199667" stop-color="#FFF4DE"/>
<stop offset="1" stop-color="#FDE9C2"/>
</linearGradient>
</defs>
</svg>
